<svg xmlns="http://www.w3.org/2000/svg" width="1200" height="300" viewBox="0 0 1200 300" fill="none" role="img" aria-labelledby="title description">
  <title id="title">Arbitrage Inception</title>
  <desc id="description">On-chain tools. Built in the open. By Luca Celebrano, @Lukecele.</desc>
  <defs>
    <linearGradient id="background" x1="0" y1="0" x2="1200" y2="300" gradientUnits="userSpaceOnUse">
      <stop stop-color="#0D1627"/>
      <stop offset="1" stop-color="#142B35"/>
    </linearGradient>
    <linearGradient id="accent" x1="56" y1="0" x2="1144" y2="0" gradientUnits="userSpaceOnUse">
      <stop stop-color="#F3C969"/>
      <stop offset="1" stop-color="#70E0CF"/>
    </linearGradient>
  </defs>
  <rect width="1200" height="300" rx="20" fill="url(#background)"/>
  <rect x="56" y="42" width="1088" height="3" rx="1.5" fill="url(#accent)"/>
  <g stroke="#70E0CF" stroke-opacity="0.18">
    <path d="M940 90 1040 148 1140 90M940 90V206L1040 264 1140 206V90L1040 32 940 90Z"/>
    <path d="M1040 148V264M990 119V177L1040 206 1090 177V119M940 206 1040 148 1140 206"/>
  </g>
  <circle cx="1040" cy="148" r="7" fill="#70E0CF"/>
  <circle cx="940" cy="90" r="5" fill="#F3C969"/>
  <circle cx="1140" cy="206" r="5" fill="#F3C969"/>
  <g font-family="system-ui, -apple-system, 'Segoe UI', sans-serif">
    <text x="56" y="87" fill="#F3C969" font-size="16" font-weight="600" letter-spacing="3">ARBITRAGE INCEPTION</text>
    <text x="56" y="151" fill="#F4F7FB" font-size="48" font-weight="700">On-chain tools.</text>
    <text x="56" y="209" fill="#F4F7FB" font-size="48" font-weight="700">Built in the open.</text>
    <text x="56" y="261" fill="#B7C8D7" font-size="20">Luca Celebrano <tspan fill="#70E0CF">/ @Lukecele</tspan></text>
  </g>
</svg>
